<mxfile host="app.diagrams.net" agent="Mozilla/5.0 (Windows NT 10.0; Win64; x64) AppleWebKit/537.36 (KHTML, like Gecko) Chrome/131.0.0.0 Safari/537.36" version="24.8.4" pages="2">
  <diagram id="l3OW-B98i_NPzXUQKctf" name="Part_1_ClassDiagrams">
    <mxGraphModel dx="1687" dy="868" grid="1" gridSize="10" guides="1" tooltips="1" connect="1" arrows="1" fold="1" page="1" pageScale="1" pageWidth="827" pageHeight="1169" math="0" shadow="0">
      <root>
        <mxCell id="0" />
        <mxCell id="1" parent="0" />
        <mxCell id="iTiZdGX-R4Q6aT_eaBIl-11" value="Gui" style="swimlane;fontStyle=0;align=center;verticalAlign=top;childLayout=stackLayout;horizontal=1;startSize=26;horizontalStack=0;resizeParent=1;resizeLast=0;collapsible=1;marginBottom=0;rounded=0;shadow=0;strokeWidth=1;fontSize=16;" vertex="1" parent="1">
          <mxGeometry x="170" y="470" width="310" height="220" as="geometry">
            <mxRectangle x="130" y="380" width="160" height="26" as="alternateBounds" />
          </mxGeometry>
        </mxCell>
        <mxCell id="iTiZdGX-R4Q6aT_eaBIl-12" value="+root: Tk&#xa;" style="text;align=left;verticalAlign=top;spacingLeft=4;spacingRight=4;overflow=hidden;rotatable=0;points=[[0,0.5],[1,0.5]];portConstraint=eastwest;fontSize=14;" vertex="1" parent="iTiZdGX-R4Q6aT_eaBIl-11">
          <mxGeometry y="26" width="310" height="26" as="geometry" />
        </mxCell>
        <mxCell id="iTiZdGX-R4Q6aT_eaBIl-33" value="+canvas: Canvas&#xa;" style="text;align=left;verticalAlign=top;spacingLeft=4;spacingRight=4;overflow=hidden;rotatable=0;points=[[0,0.5],[1,0.5]];portConstraint=eastwest;fontSize=14;" vertex="1" parent="iTiZdGX-R4Q6aT_eaBIl-11">
          <mxGeometry y="52" width="310" height="26" as="geometry" />
        </mxCell>
        <mxCell id="iTiZdGX-R4Q6aT_eaBIl-35" value="+snakeIcon: int&#xa;" style="text;align=left;verticalAlign=top;spacingLeft=4;spacingRight=4;overflow=hidden;rotatable=0;points=[[0,0.5],[1,0.5]];portConstraint=eastwest;fontSize=14;" vertex="1" parent="iTiZdGX-R4Q6aT_eaBIl-11">
          <mxGeometry y="78" width="310" height="26" as="geometry" />
        </mxCell>
        <mxCell id="iTiZdGX-R4Q6aT_eaBIl-34" value="+preyIcon: int&#xa;" style="text;align=left;verticalAlign=top;spacingLeft=4;spacingRight=4;overflow=hidden;rotatable=0;points=[[0,0.5],[1,0.5]];portConstraint=eastwest;fontSize=14;" vertex="1" parent="iTiZdGX-R4Q6aT_eaBIl-11">
          <mxGeometry y="104" width="310" height="26" as="geometry" />
        </mxCell>
        <mxCell id="iTiZdGX-R4Q6aT_eaBIl-36" value="+score: int&#xa;" style="text;align=left;verticalAlign=top;spacingLeft=4;spacingRight=4;overflow=hidden;rotatable=0;points=[[0,0.5],[1,0.5]];portConstraint=eastwest;fontSize=14;" vertex="1" parent="iTiZdGX-R4Q6aT_eaBIl-11">
          <mxGeometry y="130" width="310" height="26" as="geometry" />
        </mxCell>
        <mxCell id="iTiZdGX-R4Q6aT_eaBIl-13" value="" style="line;html=1;strokeWidth=1;align=left;verticalAlign=middle;spacingTop=-1;spacingLeft=3;spacingRight=3;rotatable=0;labelPosition=right;points=[];portConstraint=eastwest;" vertex="1" parent="iTiZdGX-R4Q6aT_eaBIl-11">
          <mxGeometry y="156" width="310" height="8" as="geometry" />
        </mxCell>
        <mxCell id="iTiZdGX-R4Q6aT_eaBIl-14" value="__init__()&#xa;" style="text;align=left;verticalAlign=top;spacingLeft=4;spacingRight=4;overflow=hidden;rotatable=0;points=[[0,0.5],[1,0.5]];portConstraint=eastwest;fontSize=14;" vertex="1" parent="iTiZdGX-R4Q6aT_eaBIl-11">
          <mxGeometry y="164" width="310" height="26" as="geometry" />
        </mxCell>
        <mxCell id="iTiZdGX-R4Q6aT_eaBIl-15" value="+gameOver(): None" style="text;align=left;verticalAlign=top;spacingLeft=4;spacingRight=4;overflow=hidden;rotatable=0;points=[[0,0.5],[1,0.5]];portConstraint=eastwest;fontStyle=0;fontSize=14;" vertex="1" parent="iTiZdGX-R4Q6aT_eaBIl-11">
          <mxGeometry y="190" width="310" height="26" as="geometry" />
        </mxCell>
        <mxCell id="iTiZdGX-R4Q6aT_eaBIl-21" value="Queue" style="swimlane;fontStyle=0;align=center;verticalAlign=top;childLayout=stackLayout;horizontal=1;startSize=26;horizontalStack=0;resizeParent=1;resizeLast=0;collapsible=1;marginBottom=0;rounded=0;shadow=0;strokeWidth=1;fontSize=16;" vertex="1" parent="1">
          <mxGeometry x="740" y="160" width="310" height="112" as="geometry">
            <mxRectangle x="130" y="380" width="160" height="26" as="alternateBounds" />
          </mxGeometry>
        </mxCell>
        <mxCell id="iTiZdGX-R4Q6aT_eaBIl-23" value="..." style="text;align=left;verticalAlign=top;spacingLeft=4;spacingRight=4;overflow=hidden;rotatable=0;points=[[0,0.5],[1,0.5]];portConstraint=eastwest;fontSize=14;" vertex="1" parent="iTiZdGX-R4Q6aT_eaBIl-21">
          <mxGeometry y="26" width="310" height="26" as="geometry" />
        </mxCell>
        <mxCell id="iTiZdGX-R4Q6aT_eaBIl-24" value="" style="line;html=1;strokeWidth=1;align=left;verticalAlign=middle;spacingTop=-1;spacingLeft=3;spacingRight=3;rotatable=0;labelPosition=right;points=[];portConstraint=eastwest;" vertex="1" parent="iTiZdGX-R4Q6aT_eaBIl-21">
          <mxGeometry y="52" width="310" height="8" as="geometry" />
        </mxCell>
        <mxCell id="iTiZdGX-R4Q6aT_eaBIl-25" value="+get_nowait(): object" style="text;align=left;verticalAlign=top;spacingLeft=4;spacingRight=4;overflow=hidden;rotatable=0;points=[[0,0.5],[1,0.5]];portConstraint=eastwest;fontSize=14;" vertex="1" parent="iTiZdGX-R4Q6aT_eaBIl-21">
          <mxGeometry y="60" width="310" height="26" as="geometry" />
        </mxCell>
        <mxCell id="bh2H8tmwaKUtkd9apLRB-10" value="+put_nowait(item: object): NoneÂ " style="text;align=left;verticalAlign=top;spacingLeft=4;spacingRight=4;overflow=hidden;rotatable=0;points=[[0,0.5],[1,0.5]];portConstraint=eastwest;fontSize=14;" vertex="1" parent="iTiZdGX-R4Q6aT_eaBIl-21">
          <mxGeometry y="86" width="310" height="26" as="geometry" />
        </mxCell>
        <mxCell id="iTiZdGX-R4Q6aT_eaBIl-37" value="Game" style="swimlane;fontStyle=0;align=center;verticalAlign=top;childLayout=stackLayout;horizontal=1;startSize=26;horizontalStack=0;resizeParent=1;resizeLast=0;collapsible=1;marginBottom=0;rounded=0;shadow=0;strokeWidth=1;fontSize=16;" vertex="1" parent="1">
          <mxGeometry x="10" y="53" width="310" height="346" as="geometry">
            <mxRectangle x="130" y="380" width="160" height="26" as="alternateBounds" />
          </mxGeometry>
        </mxCell>
        <mxCell id="iTiZdGX-R4Q6aT_eaBIl-38" value="+queue: Queue&#xa;" style="text;align=left;verticalAlign=top;spacingLeft=4;spacingRight=4;overflow=hidden;rotatable=0;points=[[0,0.5],[1,0.5]];portConstraint=eastwest;fontSize=14;" vertex="1" parent="iTiZdGX-R4Q6aT_eaBIl-37">
          <mxGeometry y="26" width="310" height="26" as="geometry" />
        </mxCell>
        <mxCell id="iTiZdGX-R4Q6aT_eaBIl-39" value="+score: int&#xa;" style="text;align=left;verticalAlign=top;spacingLeft=4;spacingRight=4;overflow=hidden;rotatable=0;points=[[0,0.5],[1,0.5]];portConstraint=eastwest;fontSize=14;" vertex="1" parent="iTiZdGX-R4Q6aT_eaBIl-37">
          <mxGeometry y="52" width="310" height="26" as="geometry" />
        </mxCell>
        <mxCell id="iTiZdGX-R4Q6aT_eaBIl-40" value="+snakeCoordinates: list&#xa;" style="text;align=left;verticalAlign=top;spacingLeft=4;spacingRight=4;overflow=hidden;rotatable=0;points=[[0,0.5],[1,0.5]];portConstraint=eastwest;fontSize=14;" vertex="1" parent="iTiZdGX-R4Q6aT_eaBIl-37">
          <mxGeometry y="78" width="310" height="26" as="geometry" />
        </mxCell>
        <mxCell id="iTiZdGX-R4Q6aT_eaBIl-41" value="+direction: str&#xa;" style="text;align=left;verticalAlign=top;spacingLeft=4;spacingRight=4;overflow=hidden;rotatable=0;points=[[0,0.5],[1,0.5]];portConstraint=eastwest;fontSize=14;" vertex="1" parent="iTiZdGX-R4Q6aT_eaBIl-37">
          <mxGeometry y="104" width="310" height="26" as="geometry" />
        </mxCell>
        <mxCell id="iTiZdGX-R4Q6aT_eaBIl-42" value="+gameNotOver: bool&#xa;" style="text;align=left;verticalAlign=top;spacingLeft=4;spacingRight=4;overflow=hidden;rotatable=0;points=[[0,0.5],[1,0.5]];portConstraint=eastwest;fontSize=14;" vertex="1" parent="iTiZdGX-R4Q6aT_eaBIl-37">
          <mxGeometry y="130" width="310" height="26" as="geometry" />
        </mxCell>
        <mxCell id="iTiZdGX-R4Q6aT_eaBIl-43" value="" style="line;html=1;strokeWidth=1;align=left;verticalAlign=middle;spacingTop=-1;spacingLeft=3;spacingRight=3;rotatable=0;labelPosition=right;points=[];portConstraint=eastwest;" vertex="1" parent="iTiZdGX-R4Q6aT_eaBIl-37">
          <mxGeometry y="156" width="310" height="8" as="geometry" />
        </mxCell>
        <mxCell id="iTiZdGX-R4Q6aT_eaBIl-44" value="__init__()&#xa;" style="text;align=left;verticalAlign=top;spacingLeft=4;spacingRight=4;overflow=hidden;rotatable=0;points=[[0,0.5],[1,0.5]];portConstraint=eastwest;fontSize=14;" vertex="1" parent="iTiZdGX-R4Q6aT_eaBIl-37">
          <mxGeometry y="164" width="310" height="26" as="geometry" />
        </mxCell>
        <mxCell id="iTiZdGX-R4Q6aT_eaBIl-45" value="+superloop(): None" style="text;align=left;verticalAlign=top;spacingLeft=4;spacingRight=4;overflow=hidden;rotatable=0;points=[[0,0.5],[1,0.5]];portConstraint=eastwest;fontStyle=0;fontSize=14;" vertex="1" parent="iTiZdGX-R4Q6aT_eaBIl-37">
          <mxGeometry y="190" width="310" height="26" as="geometry" />
        </mxCell>
        <mxCell id="iTiZdGX-R4Q6aT_eaBIl-46" value="+whenAnArrowKeyIsPressed(e: Event): None" style="text;align=left;verticalAlign=top;spacingLeft=4;spacingRight=4;overflow=hidden;rotatable=0;points=[[0,0.5],[1,0.5]];portConstraint=eastwest;fontStyle=0;fontSize=14;" vertex="1" parent="iTiZdGX-R4Q6aT_eaBIl-37">
          <mxGeometry y="216" width="310" height="26" as="geometry" />
        </mxCell>
        <mxCell id="iTiZdGX-R4Q6aT_eaBIl-47" value="+move(): None" style="text;align=left;verticalAlign=top;spacingLeft=4;spacingRight=4;overflow=hidden;rotatable=0;points=[[0,0.5],[1,0.5]];portConstraint=eastwest;fontStyle=0;fontSize=14;" vertex="1" parent="iTiZdGX-R4Q6aT_eaBIl-37">
          <mxGeometry y="242" width="310" height="26" as="geometry" />
        </mxCell>
        <mxCell id="iTiZdGX-R4Q6aT_eaBIl-48" value="+calculateNewCoordinates(): tuple" style="text;align=left;verticalAlign=top;spacingLeft=4;spacingRight=4;overflow=hidden;rotatable=0;points=[[0,0.5],[1,0.5]];portConstraint=eastwest;fontStyle=0;fontSize=14;" vertex="1" parent="iTiZdGX-R4Q6aT_eaBIl-37">
          <mxGeometry y="268" width="310" height="26" as="geometry" />
        </mxCell>
        <mxCell id="iTiZdGX-R4Q6aT_eaBIl-49" value="+isGameOver(snakeCoordinates: tuple): None" style="text;align=left;verticalAlign=top;spacingLeft=4;spacingRight=4;overflow=hidden;rotatable=0;points=[[0,0.5],[1,0.5]];portConstraint=eastwest;fontStyle=0;fontSize=14;" vertex="1" parent="iTiZdGX-R4Q6aT_eaBIl-37">
          <mxGeometry y="294" width="310" height="26" as="geometry" />
        </mxCell>
        <mxCell id="iTiZdGX-R4Q6aT_eaBIl-50" value="+createNewPrey(): None" style="text;align=left;verticalAlign=top;spacingLeft=4;spacingRight=4;overflow=hidden;rotatable=0;points=[[0,0.5],[1,0.5]];portConstraint=eastwest;fontStyle=0;fontSize=14;" vertex="1" parent="iTiZdGX-R4Q6aT_eaBIl-37">
          <mxGeometry y="320" width="310" height="26" as="geometry" />
        </mxCell>
        <mxCell id="QuYhQMTFozfj46MfZ2pz-3" value="updates widgets" style="endArrow=blockThin;endSize=10;endFill=1;shadow=0;strokeWidth=1;rounded=0;curved=0;edgeStyle=elbowEdgeStyle;elbow=vertical;fontSize=14;exitX=-0.011;exitY=0.074;exitDx=0;exitDy=0;exitPerimeter=0;entryX=0.547;entryY=0.017;entryDx=0;entryDy=0;entryPerimeter=0;" edge="1" parent="1" source="bh2H8tmwaKUtkd9apLRB-1" target="iTiZdGX-R4Q6aT_eaBIl-11">
          <mxGeometry x="0.7941" y="68" width="160" relative="1" as="geometry">
            <mxPoint x="320" y="319.99800000000005" as="sourcePoint" />
            <mxPoint x="602.5" y="676.11" as="targetPoint" />
            <Array as="points">
              <mxPoint x="360" y="170" />
            </Array>
            <mxPoint as="offset" />
          </mxGeometry>
        </mxCell>
        <mxCell id="QuYhQMTFozfj46MfZ2pz-4" value="puts items" style="endArrow=blockThin;endSize=10;endFill=1;shadow=0;strokeWidth=1;rounded=0;curved=0;edgeStyle=elbowEdgeStyle;elbow=vertical;fontSize=14;exitX=1;exitY=0.03;exitDx=0;exitDy=0;exitPerimeter=0;entryX=0.276;entryY=0.011;entryDx=0;entryDy=0;entryPerimeter=0;" edge="1" parent="1" source="iTiZdGX-R4Q6aT_eaBIl-37" target="iTiZdGX-R4Q6aT_eaBIl-21">
          <mxGeometry x="0.8127" y="44" width="160" relative="1" as="geometry">
            <mxPoint x="80" y="135" as="sourcePoint" />
            <mxPoint x="209" y="130" as="targetPoint" />
            <Array as="points">
              <mxPoint x="480" y="60" />
            </Array>
            <mxPoint as="offset" />
          </mxGeometry>
        </mxCell>
        <mxCell id="bh2H8tmwaKUtkd9apLRB-1" value="QueueHandler" style="swimlane;fontStyle=0;align=center;verticalAlign=top;childLayout=stackLayout;horizontal=1;startSize=26;horizontalStack=0;resizeParent=1;resizeLast=0;collapsible=1;marginBottom=0;rounded=0;shadow=0;strokeWidth=1;fontSize=16;" vertex="1" parent="1">
          <mxGeometry x="380" y="160" width="310" height="112" as="geometry">
            <mxRectangle x="130" y="380" width="160" height="26" as="alternateBounds" />
          </mxGeometry>
        </mxCell>
        <mxCell id="bh2H8tmwaKUtkd9apLRB-2" value="+queue: Queue&#xa;" style="text;align=left;verticalAlign=top;spacingLeft=4;spacingRight=4;overflow=hidden;rotatable=0;points=[[0,0.5],[1,0.5]];portConstraint=eastwest;fontSize=14;" vertex="1" parent="bh2H8tmwaKUtkd9apLRB-1">
          <mxGeometry y="26" width="310" height="26" as="geometry" />
        </mxCell>
        <mxCell id="bh2H8tmwaKUtkd9apLRB-3" value="+gui: Gui" style="text;align=left;verticalAlign=top;spacingLeft=4;spacingRight=4;overflow=hidden;rotatable=0;points=[[0,0.5],[1,0.5]];portConstraint=eastwest;fontSize=14;" vertex="1" parent="bh2H8tmwaKUtkd9apLRB-1">
          <mxGeometry y="52" width="310" height="26" as="geometry" />
        </mxCell>
        <mxCell id="bh2H8tmwaKUtkd9apLRB-4" value="" style="line;html=1;strokeWidth=1;align=left;verticalAlign=middle;spacingTop=-1;spacingLeft=3;spacingRight=3;rotatable=0;labelPosition=right;points=[];portConstraint=eastwest;" vertex="1" parent="bh2H8tmwaKUtkd9apLRB-1">
          <mxGeometry y="78" width="310" height="8" as="geometry" />
        </mxCell>
        <mxCell id="bh2H8tmwaKUtkd9apLRB-5" value="+queueHandler(): None" style="text;align=left;verticalAlign=top;spacingLeft=4;spacingRight=4;overflow=hidden;rotatable=0;points=[[0,0.5],[1,0.5]];portConstraint=eastwest;fontSize=14;" vertex="1" parent="bh2H8tmwaKUtkd9apLRB-1">
          <mxGeometry y="86" width="310" height="26" as="geometry" />
        </mxCell>
        <mxCell id="bh2H8tmwaKUtkd9apLRB-11" value="retrieves items" style="endArrow=blockThin;endSize=10;endFill=1;shadow=0;strokeWidth=1;rounded=0;curved=0;edgeStyle=elbowEdgeStyle;elbow=vertical;fontSize=14;entryX=-0.008;entryY=0.097;entryDx=0;entryDy=0;entryPerimeter=0;exitX=1;exitY=0.134;exitDx=0;exitDy=0;exitPerimeter=0;" edge="1" parent="1" source="bh2H8tmwaKUtkd9apLRB-1" target="iTiZdGX-R4Q6aT_eaBIl-21">
          <mxGeometry x="0.7036" y="31" width="160" relative="1" as="geometry">
            <mxPoint x="330" y="73" as="sourcePoint" />
            <mxPoint x="836" y="171" as="targetPoint" />
            <Array as="points">
              <mxPoint x="720" y="171" />
            </Array>
            <mxPoint as="offset" />
          </mxGeometry>
        </mxCell>
      </root>
    </mxGraphModel>
  </diagram>
  <diagram name="Part_1_Alternate_ClassDiagrams" id="UjVpM3rHvytLFDbQmvey">
    <mxGraphModel dx="1195" dy="615" grid="1" gridSize="10" guides="1" tooltips="1" connect="1" arrows="1" fold="1" page="1" pageScale="1" pageWidth="827" pageHeight="1169" math="0" shadow="0">
      <root>
        <mxCell id="YyXSWFWvSZ3sjcMmKtDF-0" />
        <mxCell id="YyXSWFWvSZ3sjcMmKtDF-1" parent="YyXSWFWvSZ3sjcMmKtDF-0" />
        <mxCell id="YyXSWFWvSZ3sjcMmKtDF-2" value="Gui" style="swimlane;fontStyle=0;align=center;verticalAlign=top;childLayout=stackLayout;horizontal=1;startSize=26;horizontalStack=0;resizeParent=1;resizeLast=0;collapsible=1;marginBottom=0;rounded=0;shadow=0;strokeWidth=1;fontSize=16;" vertex="1" parent="YyXSWFWvSZ3sjcMmKtDF-1">
          <mxGeometry x="560" y="60" width="310" height="242" as="geometry">
            <mxRectangle x="130" y="380" width="160" height="26" as="alternateBounds" />
          </mxGeometry>
        </mxCell>
        <mxCell id="YyXSWFWvSZ3sjcMmKtDF-3" value="+root: Tk&#xa;" style="text;align=left;verticalAlign=top;spacingLeft=4;spacingRight=4;overflow=hidden;rotatable=0;points=[[0,0.5],[1,0.5]];portConstraint=eastwest;fontSize=14;" vertex="1" parent="YyXSWFWvSZ3sjcMmKtDF-2">
          <mxGeometry y="26" width="310" height="26" as="geometry" />
        </mxCell>
        <mxCell id="YyXSWFWvSZ3sjcMmKtDF-4" value="+canvas: Canvas&#xa;" style="text;align=left;verticalAlign=top;spacingLeft=4;spacingRight=4;overflow=hidden;rotatable=0;points=[[0,0.5],[1,0.5]];portConstraint=eastwest;fontSize=14;" vertex="1" parent="YyXSWFWvSZ3sjcMmKtDF-2">
          <mxGeometry y="52" width="310" height="26" as="geometry" />
        </mxCell>
        <mxCell id="YyXSWFWvSZ3sjcMmKtDF-5" value="+snakeIcon: int&#xa;" style="text;align=left;verticalAlign=top;spacingLeft=4;spacingRight=4;overflow=hidden;rotatable=0;points=[[0,0.5],[1,0.5]];portConstraint=eastwest;fontSize=14;" vertex="1" parent="YyXSWFWvSZ3sjcMmKtDF-2">
          <mxGeometry y="78" width="310" height="26" as="geometry" />
        </mxCell>
        <mxCell id="YyXSWFWvSZ3sjcMmKtDF-6" value="+preyIcon: int&#xa;" style="text;align=left;verticalAlign=top;spacingLeft=4;spacingRight=4;overflow=hidden;rotatable=0;points=[[0,0.5],[1,0.5]];portConstraint=eastwest;fontSize=14;" vertex="1" parent="YyXSWFWvSZ3sjcMmKtDF-2">
          <mxGeometry y="104" width="310" height="26" as="geometry" />
        </mxCell>
        <mxCell id="YyXSWFWvSZ3sjcMmKtDF-7" value="+score: int&#xa;" style="text;align=left;verticalAlign=top;spacingLeft=4;spacingRight=4;overflow=hidden;rotatable=0;points=[[0,0.5],[1,0.5]];portConstraint=eastwest;fontSize=14;" vertex="1" parent="YyXSWFWvSZ3sjcMmKtDF-2">
          <mxGeometry y="130" width="310" height="26" as="geometry" />
        </mxCell>
        <mxCell id="YyXSWFWvSZ3sjcMmKtDF-8" value="" style="line;html=1;strokeWidth=1;align=left;verticalAlign=middle;spacingTop=-1;spacingLeft=3;spacingRight=3;rotatable=0;labelPosition=right;points=[];portConstraint=eastwest;" vertex="1" parent="YyXSWFWvSZ3sjcMmKtDF-2">
          <mxGeometry y="156" width="310" height="8" as="geometry" />
        </mxCell>
        <mxCell id="YyXSWFWvSZ3sjcMmKtDF-9" value="__init__()&#xa;" style="text;align=left;verticalAlign=top;spacingLeft=4;spacingRight=4;overflow=hidden;rotatable=0;points=[[0,0.5],[1,0.5]];portConstraint=eastwest;fontSize=14;" vertex="1" parent="YyXSWFWvSZ3sjcMmKtDF-2">
          <mxGeometry y="164" width="310" height="26" as="geometry" />
        </mxCell>
        <mxCell id="BdYYx1buN2pS_LhNmTwO-2" value="+update(): None" style="text;align=left;verticalAlign=top;spacingLeft=4;spacingRight=4;overflow=hidden;rotatable=0;points=[[0,0.5],[1,0.5]];portConstraint=eastwest;fontStyle=0;fontSize=14;" vertex="1" parent="YyXSWFWvSZ3sjcMmKtDF-2">
          <mxGeometry y="190" width="310" height="26" as="geometry" />
        </mxCell>
        <mxCell id="YyXSWFWvSZ3sjcMmKtDF-10" value="+gameOver(): None" style="text;align=left;verticalAlign=top;spacingLeft=4;spacingRight=4;overflow=hidden;rotatable=0;points=[[0,0.5],[1,0.5]];portConstraint=eastwest;fontStyle=0;fontSize=14;" vertex="1" parent="YyXSWFWvSZ3sjcMmKtDF-2">
          <mxGeometry y="216" width="310" height="26" as="geometry" />
        </mxCell>
        <mxCell id="YyXSWFWvSZ3sjcMmKtDF-16" value="Game" style="swimlane;fontStyle=0;align=center;verticalAlign=top;childLayout=stackLayout;horizontal=1;startSize=26;horizontalStack=0;resizeParent=1;resizeLast=0;collapsible=1;marginBottom=0;rounded=0;shadow=0;strokeWidth=1;fontSize=16;" vertex="1" parent="YyXSWFWvSZ3sjcMmKtDF-1">
          <mxGeometry x="70" y="53" width="310" height="372" as="geometry">
            <mxRectangle x="130" y="380" width="160" height="26" as="alternateBounds" />
          </mxGeometry>
        </mxCell>
        <mxCell id="YyXSWFWvSZ3sjcMmKtDF-17" value="+locks: dict[str, Lock]&#xa;" style="text;align=left;verticalAlign=top;spacingLeft=4;spacingRight=4;overflow=hidden;rotatable=0;points=[[0,0.5],[1,0.5]];portConstraint=eastwest;fontSize=14;" vertex="1" parent="YyXSWFWvSZ3sjcMmKtDF-16">
          <mxGeometry y="26" width="310" height="26" as="geometry" />
        </mxCell>
        <mxCell id="YyXSWFWvSZ3sjcMmKtDF-18" value="+score: int&#xa;" style="text;align=left;verticalAlign=top;spacingLeft=4;spacingRight=4;overflow=hidden;rotatable=0;points=[[0,0.5],[1,0.5]];portConstraint=eastwest;fontSize=14;" vertex="1" parent="YyXSWFWvSZ3sjcMmKtDF-16">
          <mxGeometry y="52" width="310" height="26" as="geometry" />
        </mxCell>
        <mxCell id="YyXSWFWvSZ3sjcMmKtDF-19" value="+snakeCoordinates: list&#xa;" style="text;align=left;verticalAlign=top;spacingLeft=4;spacingRight=4;overflow=hidden;rotatable=0;points=[[0,0.5],[1,0.5]];portConstraint=eastwest;fontSize=14;" vertex="1" parent="YyXSWFWvSZ3sjcMmKtDF-16">
          <mxGeometry y="78" width="310" height="26" as="geometry" />
        </mxCell>
        <mxCell id="BdYYx1buN2pS_LhNmTwO-1" value="+preyCoordinates: tuple&#xa;" style="text;align=left;verticalAlign=top;spacingLeft=4;spacingRight=4;overflow=hidden;rotatable=0;points=[[0,0.5],[1,0.5]];portConstraint=eastwest;fontSize=14;" vertex="1" parent="YyXSWFWvSZ3sjcMmKtDF-16">
          <mxGeometry y="104" width="310" height="26" as="geometry" />
        </mxCell>
        <mxCell id="YyXSWFWvSZ3sjcMmKtDF-20" value="+direction: str&#xa;" style="text;align=left;verticalAlign=top;spacingLeft=4;spacingRight=4;overflow=hidden;rotatable=0;points=[[0,0.5],[1,0.5]];portConstraint=eastwest;fontSize=14;" vertex="1" parent="YyXSWFWvSZ3sjcMmKtDF-16">
          <mxGeometry y="130" width="310" height="26" as="geometry" />
        </mxCell>
        <mxCell id="YyXSWFWvSZ3sjcMmKtDF-21" value="+gameNotOver: bool&#xa;" style="text;align=left;verticalAlign=top;spacingLeft=4;spacingRight=4;overflow=hidden;rotatable=0;points=[[0,0.5],[1,0.5]];portConstraint=eastwest;fontSize=14;" vertex="1" parent="YyXSWFWvSZ3sjcMmKtDF-16">
          <mxGeometry y="156" width="310" height="26" as="geometry" />
        </mxCell>
        <mxCell id="YyXSWFWvSZ3sjcMmKtDF-22" value="" style="line;html=1;strokeWidth=1;align=left;verticalAlign=middle;spacingTop=-1;spacingLeft=3;spacingRight=3;rotatable=0;labelPosition=right;points=[];portConstraint=eastwest;" vertex="1" parent="YyXSWFWvSZ3sjcMmKtDF-16">
          <mxGeometry y="182" width="310" height="8" as="geometry" />
        </mxCell>
        <mxCell id="YyXSWFWvSZ3sjcMmKtDF-23" value="__init__()&#xa;" style="text;align=left;verticalAlign=top;spacingLeft=4;spacingRight=4;overflow=hidden;rotatable=0;points=[[0,0.5],[1,0.5]];portConstraint=eastwest;fontSize=14;" vertex="1" parent="YyXSWFWvSZ3sjcMmKtDF-16">
          <mxGeometry y="190" width="310" height="26" as="geometry" />
        </mxCell>
        <mxCell id="YyXSWFWvSZ3sjcMmKtDF-24" value="+superloop(): None" style="text;align=left;verticalAlign=top;spacingLeft=4;spacingRight=4;overflow=hidden;rotatable=0;points=[[0,0.5],[1,0.5]];portConstraint=eastwest;fontStyle=0;fontSize=14;" vertex="1" parent="YyXSWFWvSZ3sjcMmKtDF-16">
          <mxGeometry y="216" width="310" height="26" as="geometry" />
        </mxCell>
        <mxCell id="YyXSWFWvSZ3sjcMmKtDF-25" value="+whenAnArrowKeyIsPressed(e: Event): None" style="text;align=left;verticalAlign=top;spacingLeft=4;spacingRight=4;overflow=hidden;rotatable=0;points=[[0,0.5],[1,0.5]];portConstraint=eastwest;fontStyle=0;fontSize=14;" vertex="1" parent="YyXSWFWvSZ3sjcMmKtDF-16">
          <mxGeometry y="242" width="310" height="26" as="geometry" />
        </mxCell>
        <mxCell id="YyXSWFWvSZ3sjcMmKtDF-26" value="+move(): None" style="text;align=left;verticalAlign=top;spacingLeft=4;spacingRight=4;overflow=hidden;rotatable=0;points=[[0,0.5],[1,0.5]];portConstraint=eastwest;fontStyle=0;fontSize=14;" vertex="1" parent="YyXSWFWvSZ3sjcMmKtDF-16">
          <mxGeometry y="268" width="310" height="26" as="geometry" />
        </mxCell>
        <mxCell id="YyXSWFWvSZ3sjcMmKtDF-27" value="+calculateNewCoordinates(): tuple" style="text;align=left;verticalAlign=top;spacingLeft=4;spacingRight=4;overflow=hidden;rotatable=0;points=[[0,0.5],[1,0.5]];portConstraint=eastwest;fontStyle=0;fontSize=14;" vertex="1" parent="YyXSWFWvSZ3sjcMmKtDF-16">
          <mxGeometry y="294" width="310" height="26" as="geometry" />
        </mxCell>
        <mxCell id="YyXSWFWvSZ3sjcMmKtDF-28" value="+isGameOver(snakeCoordinates: tuple): None" style="text;align=left;verticalAlign=top;spacingLeft=4;spacingRight=4;overflow=hidden;rotatable=0;points=[[0,0.5],[1,0.5]];portConstraint=eastwest;fontStyle=0;fontSize=14;" vertex="1" parent="YyXSWFWvSZ3sjcMmKtDF-16">
          <mxGeometry y="320" width="310" height="26" as="geometry" />
        </mxCell>
        <mxCell id="YyXSWFWvSZ3sjcMmKtDF-29" value="+createNewPrey(): None" style="text;align=left;verticalAlign=top;spacingLeft=4;spacingRight=4;overflow=hidden;rotatable=0;points=[[0,0.5],[1,0.5]];portConstraint=eastwest;fontStyle=0;fontSize=14;" vertex="1" parent="YyXSWFWvSZ3sjcMmKtDF-16">
          <mxGeometry y="346" width="310" height="26" as="geometry" />
        </mxCell>
        <mxCell id="YyXSWFWvSZ3sjcMmKtDF-30" value="reads data" style="endArrow=blockThin;endSize=10;endFill=1;shadow=0;strokeWidth=1;rounded=0;curved=0;edgeStyle=elbowEdgeStyle;elbow=vertical;fontSize=14;exitX=-0.003;exitY=0.041;exitDx=0;exitDy=0;exitPerimeter=0;entryX=0.998;entryY=0.047;entryDx=0;entryDy=0;entryPerimeter=0;" edge="1" parent="YyXSWFWvSZ3sjcMmKtDF-1" source="YyXSWFWvSZ3sjcMmKtDF-2" target="YyXSWFWvSZ3sjcMmKtDF-16">
          <mxGeometry x="-0.0149" y="-22" width="160" relative="1" as="geometry">
            <mxPoint x="470.0000000000001" y="420" as="sourcePoint" />
            <mxPoint x="390" y="70" as="targetPoint" />
            <Array as="points" />
            <mxPoint as="offset" />
          </mxGeometry>
        </mxCell>
      </root>
    </mxGraphModel>
  </diagram>
</mxfile>
